<svg width="93" height="97" viewBox="0 0 93 97" fill="none" xmlns="http://www.w3.org/2000/svg">
<path d="M49.6532 61.3171C50.0354 61.7157 50.6684 61.729 51.0671 61.3468C51.4657 60.9646 51.4791 60.3316 51.0968 59.9329L49.6532 61.3171ZM38.75 48.5L38.0282 47.8079C37.6573 48.1948 37.6573 48.8052 38.0282 49.1921L38.75 48.5ZM51.0968 37.0671C51.4791 36.6684 51.4657 36.0354 51.0671 35.6532C50.6684 35.2709 50.0354 35.2843 49.6532 35.6829L51.0968 37.0671ZM51.0968 59.9329L39.4718 47.8079L38.0282 49.1921L49.6532 61.3171L51.0968 59.9329ZM39.4718 49.1921L51.0968 37.0671L49.6532 35.6829L38.0282 47.8079L39.4718 49.1921Z" fill="black"/>
</svg>
