<svg width="93" height="97" viewBox="0 0 93 97" fill="none" xmlns="http://www.w3.org/2000/svg">
<path d="M43.3468 35.6829C42.9646 35.2843 42.3316 35.271 41.9329 35.6532C41.5343 36.0354 41.5209 36.6684 41.9032 37.0671L43.3468 35.6829ZM54.25 48.5L54.9718 49.1921C55.3427 48.8052 55.3427 48.1948 54.9718 47.8079L54.25 48.5ZM41.9032 59.9329C41.5209 60.3316 41.5343 60.9646 41.9329 61.3468C42.3316 61.7291 42.9646 61.7157 43.3468 61.3171L41.9032 59.9329ZM41.9032 37.0671L53.5282 49.1921L54.9718 47.8079L43.3468 35.6829L41.9032 37.0671ZM53.5282 47.8079L41.9032 59.9329L43.3468 61.3171L54.9718 49.1921L53.5282 47.8079Z" fill="black"/>
</svg>
