<svg width="25" height="25" viewBox="0 0 25 25" fill="none" xmlns="http://www.w3.org/2000/svg">
<path d="M7.48434 20.4219L8.02008 19.5775C7.76621 19.4164 7.45334 19.3781 7.16811 19.4732L7.48434 20.4219ZM3.125 21.875L2.17632 21.5588C2.05654 21.9181 2.15006 22.3143 2.41789 22.5821C2.68573 22.8499 3.08189 22.9435 3.44123 22.8237L3.125 21.875ZM4.57811 17.5157L5.5268 17.8319C5.62187 17.5467 5.58357 17.2338 5.4225 16.9799L4.57811 17.5157ZM12.5 22.875C18.23 22.875 22.875 18.23 22.875 12.5H20.875C20.875 17.1254 17.1254 20.875 12.5 20.875V22.875ZM6.94861 21.2663C8.55447 22.2851 10.4599 22.875 12.5 22.875V20.875C10.8504 20.875 9.31503 20.3991 8.02008 19.5775L6.94861 21.2663ZM7.16811 19.4732L2.80877 20.9263L3.44123 22.8237L7.80057 21.3706L7.16811 19.4732ZM4.07368 22.1912L5.5268 17.8319L3.62943 17.1994L2.17632 21.5588L4.07368 22.1912ZM2.125 12.5C2.125 14.5401 2.71486 16.4455 3.73373 18.0514L5.4225 16.9799C4.6009 15.685 4.125 14.1496 4.125 12.5H2.125ZM12.5 2.125C6.77005 2.125 2.125 6.77005 2.125 12.5H4.125C4.125 7.87461 7.87461 4.125 12.5 4.125V2.125ZM22.875 12.5C22.875 6.77005 18.23 2.125 12.5 2.125V4.125C17.1254 4.125 20.875 7.87461 20.875 12.5H22.875Z" fill="white"/>
<path d="M16.6665 12.5H16.6685V12.502H16.6665V12.5Z" stroke="white" stroke-width="2" stroke-linecap="round" stroke-linejoin="round"/>
<path d="M12.5 12.5H12.502V12.502H12.5V12.5Z" stroke="white" stroke-width="2" stroke-linecap="round" stroke-linejoin="round"/>
<path d="M8.3335 12.5H8.3355V12.502H8.3335V12.5Z" stroke="white" stroke-width="2" stroke-linecap="round" stroke-linejoin="round"/>
</svg>
