<svg width="122" height="31" viewBox="0 0 122 31" fill="none" xmlns="http://www.w3.org/2000/svg">
<path d="M31.075 8.125H44.625L44.65 5.55H39.5V3.1H36.175V5.55H31.075V8.125ZM52.25 12.875V10.15H49.2V3.125H45.9V20.35H49.2V12.875H52.25ZM43.5 13.375C43.5 10.775 41.125 8.95 37.85 8.95C34.525 8.95 32.2 10.775 32.2 13.375C32.2 16.025 34.525 17.825 37.85 17.825C41.125 17.825 43.5 16.025 43.5 13.375ZM35.35 13.375C35.35 12.1 36.35 11.45 37.85 11.45C39.35 11.45 40.35 12.1 40.35 13.375C40.35 14.65 39.35 15.325 37.85 15.325C36.35 15.325 35.35 14.65 35.35 13.375ZM50.025 23.125H37.65V19.075H34.35V25.75H50.025V23.125ZM73.823 26.15V3.125H70.698V26.15H73.823ZM69.098 3.5H66.023V10.9H63.148V13.575H66.023V25.125H69.098V3.5ZM61.423 8.875V5.125H58.248V9C58.248 12.925 57.023 17.05 53.648 19.1L55.623 21.575C57.723 20.3 59.048 18.175 59.848 15.575C60.573 17.9 61.748 19.85 63.748 21.05L65.548 18.5C62.423 16.425 61.423 12.6 61.423 8.875ZM95.0961 14.525H98.4461V11.8H95.0961V3.15H91.7961V26.15H95.0961V14.525ZM88.7711 5.3H77.7711V20.55H88.7711V5.3ZM85.5211 17.95H81.0211V7.9H85.5211V17.95ZM116.719 18.5H119.844V3.125H116.719V18.5ZM108.594 12.1H111.969V16.45H115.044V3.5H111.969V9.475H109.644C109.994 8.075 110.169 6.55 110.169 4.875H101.119V7.5H106.894C106.819 8.1 106.744 8.675 106.569 9.25L100.169 9.575L100.594 12.2L105.444 11.65C104.344 13.35 102.594 14.675 99.8941 15.8L101.469 18.15C105.094 16.55 107.269 14.6 108.594 12.1ZM113.469 17.675V17.275H110.169V17.675C110.169 20.175 107.769 22.825 102.769 23.5L104.044 26.075C107.769 25.5 110.394 23.9 111.819 21.7C113.219 23.9 115.869 25.5 119.594 26.075L120.844 23.5C115.869 22.825 113.469 20.15 113.469 17.675Z" fill="#0B0B0B"/>
<rect y="7.14282" width="18.8571" height="18.8571" fill="black"/>
<rect x="5.14307" y="12.2858" width="8.57143" height="8.57143" fill="white"/>
<path d="M7.28571 2H12.8571L13.7143 5.42857H6L7.28571 2Z" fill="#56C271"/>
</svg>
